<svg xmlns="http://www.w3.org/2000/svg" viewBox="0 0 1920 1080" preserveAspectRatio="xMidYMid slice">
  <defs>
    <pattern id="leafVeinPattern" x="0" y="0" width="400" height="400" patternUnits="userSpaceOnUse">
      <!-- Ana damar -->
      <path d="M200,50 Q200,200 180,350"
            stroke="rgba(139,195,74,0.03)"
            stroke-width="0.5"
            fill="none"
            stroke-linecap="round"/>

      <!-- Yan damarlar -->
      <path d="M200,100 Q150,110 120,140"
            stroke="rgba(139,195,74,0.025)"
            stroke-width="0.3"
            fill="none"/>
      <path d="M200,100 Q250,110 280,140"
            stroke="rgba(139,195,74,0.025)"
            stroke-width="0.3"
            fill="none"/>

      <path d="M195,150 Q145,160 115,190"
            stroke="rgba(139,195,74,0.025)"
            stroke-width="0.3"
            fill="none"/>
      <path d="M195,150 Q245,160 275,190"
            stroke="rgba(139,195,74,0.025)"
            stroke-width="0.3"
            fill="none"/>

      <path d="M190,200 Q140,210 110,240"
            stroke="rgba(139,195,74,0.025)"
            stroke-width="0.3"
            fill="none"/>
      <path d="M190,200 Q240,210 270,240"
            stroke="rgba(139,195,74,0.025)"
            stroke-width="0.3"
            fill="none"/>

      <path d="M185,250 Q135,260 105,290"
            stroke="rgba(139,195,74,0.025)"
            stroke-width="0.3"
            fill="none"/>
      <path d="M185,250 Q235,260 265,290"
            stroke="rgba(139,195,74,0.025)"
            stroke-width="0.3"
            fill="none"/>

      <path d="M180,300 Q130,310 100,340"
            stroke="rgba(139,195,74,0.02)"
            stroke-width="0.3"
            fill="none"/>
      <path d="M180,300 Q230,310 260,340"
            stroke="rgba(139,195,74,0.02)"
            stroke-width="0.3"
            fill="none"/>

      <!-- İnce detay damarları -->
      <path d="M150,140 Q145,155 140,170"
            stroke="rgba(139,195,74,0.015)"
            stroke-width="0.2"
            fill="none"/>
      <path d="M250,140 Q255,155 260,170"
            stroke="rgba(139,195,74,0.015)"
            stroke-width="0.2"
            fill="none"/>
    </pattern>
  </defs>

  <rect width="100%" height="100%" fill="url(#leafVeinPattern)" />
</svg>